# xmcd CD database file
#
# Track frame offsets:
#	150
#	20121
#	39184
#	76593
#	96819
#	120949
#	135054
#	157515
#	178190
#	216253
#	256211
#
# Disc length: 3593 seconds
#
# Revision: 0
# Processed by: cddbd v1.5.1PL0 Copyright (c) Steve Scherf et al.
# Submitted via: CDex 1.51
#
DISCID=750e070b
DTITLE=Marcel Loeffler - Vago
DYEAR=1997
DGENRE=Jazz
TTITLE0=Vago
TTITLE1=Tango Retrouvé
TTITLE2=Long Travel
TTITLE3=Doumé Song
TTITLE4=Christine
TTITLE5=Poupée de Cire, Poupée de Son
TTITLE6=Goût Bulgare
TTITLE7=Nevel
TTITLE8=Vif
TTITLE9=Tangomania
TTITLE10=Vase à Mi Temps
EXTD=YEAR: 1997
EXTT0=
EXTT1=
EXTT2=
EXTT3=
EXTT4=
EXTT5=
EXTT6=
EXTT7=
EXTT8=
EXTT9=
EXTT10=
PLAYORDER=
